<svg id="Group_154" data-name="Group 154" xmlns="http://www.w3.org/2000/svg" xmlns:xlink="http://www.w3.org/1999/xlink" width="239.096" height="54.859" viewBox="0 0 239.096 54.859">
  <defs>
    <clipPath id="clip-path">
      <rect id="Rectangle_27" data-name="Rectangle 27" width="239.096" height="54.859" fill="#d3ff1a"/>
    </clipPath>
  </defs>
  <g id="Group_6" data-name="Group 6" clip-path="url(#clip-path)">
    <path id="Path_2" data-name="Path 2" d="M142.989,0c18.187,1.433,36.532,3.293,53.771,7.78a127.854,127.854,0,0,1,24.3,8.8q2.764,1.365,5.385,2.867,1.284.735,2.528,1.505c.9.558,1.553,1.224,2.472,1.766a15.789,15.789,0,0,1,6.735,7.464,9.656,9.656,0,0,1-.637,9.394,6.3,6.3,0,0,1-1.737,1.948,13.468,13.468,0,0,0-1.192.72c-.455.364-.872.748-1.357,1.094a25.746,25.746,0,0,1-5.441,2.85A76.7,76.7,0,0,1,213.9,49.72c-5.365,1-10.776,1.893-16.239,2.593-11.056,1.416-22.369,2.068-33.59,2.377a316.773,316.773,0,0,1-34.16-.667q-8.124-.658-16.306-.874c-2.769-.076-5.536-.067-8.3-.118-2.591-.047-5.2-.332-7.771-.571-5.393-.5-10.759-.981-16.174-1.345a26.166,26.166,0,0,1-3.224-.6,33.266,33.266,0,0,0-3.974-.321q-4.106-.272-8.2-.625c-10.457-.9-20.841-2.23-31.035-4.1a147.2,147.2,0,0,1-15.3-3.347c-2.473-.738-4.862-1.6-7.249-2.463a36.869,36.869,0,0,1-6.04-2.585c-3.059-1.776-5.612-4.19-6.2-7-.555-2.646.706-5.469,2.686-7.715,3.87-4.392,10.9-6.722,17.668-8.253,3.7-.838,7.5-1.431,11.26-2.133q8.146-1.521,16.468-2.51c10.687-1.284,21.5-1.956,32.329-2.3,22.648-.716,45.316-.724,67.979-.466,22.62.258,45.214.319,67.709,2.205q7.957.667,15.866,1.574c1.032.118.594,1.219-.433,1.1q-16.141-1.849-32.471-2.689c-10.954-.572-21.892-.663-32.867-.817-21.954-.307-43.917-.591-65.874-.23-21.543.354-43.159.95-64.2,4.507-4.126.7-8.27,1.42-12.356,2.228a72.049,72.049,0,0,0-10.248,2.681,25.311,25.311,0,0,0-8.317,4.555c-2.269,2.03-3.912,4.807-3.7,7.416.237,2.938,2.965,5.417,6.127,7.2a42.737,42.737,0,0,0,6.432,2.609c2.355.849,4.726,1.687,7.19,2.372,4.763,1.324,9.866,2.223,14.821,3.118q7.527,1.359,15.177,2.342,7.8,1.007,15.676,1.659,3.767.315,7.544.56c1.184.077,2.421.08,3.584.263a32.984,32.984,0,0,0,3.542.638c5.151.264,10.249.8,15.364,1.291,2.639.251,5.32.538,7.984.612,2.536.07,5.081.032,7.619.095,10.9.268,21.695,1.373,32.6,1.619,10.958.247,21.935-.01,32.855-.688a284.353,284.353,0,0,0,32.384-3.759A105.872,105.872,0,0,0,224.91,45.96a29.819,29.819,0,0,0,5.9-2.588,18.7,18.7,0,0,0,2.4-1.723,17.141,17.141,0,0,0,2.163-1.634,8.806,8.806,0,0,0,1.177-9.646,14.052,14.052,0,0,0-2.676-4.084,14.573,14.573,0,0,0-1.818-1.609c-.841-.633-1.9-1.111-2.712-1.757a55.19,55.19,0,0,0-10.528-6.031A115.323,115.323,0,0,0,207.2,12.161c-16.019-5.558-33.748-8.18-51.339-9.9-4.281-.418-8.573-.779-12.868-1.118-1.03-.081-1.042-1.224,0-1.142" transform="translate(0 0)" fill="#d3ff1a"/>
  </g>
</svg>
