<svg id="Group_55" data-name="Group 55" xmlns="http://www.w3.org/2000/svg" xmlns:xlink="http://www.w3.org/1999/xlink" width="158.744" height="49.148" viewBox="0 0 158.744 49.148">
  <defs>
    <clipPath id="clip-path">
      <rect id="Rectangle_27" data-name="Rectangle 27" width="158.744" height="49.148" fill="#d3ff1a"/>
    </clipPath>
  </defs>
  <g id="Group_6" data-name="Group 6" clip-path="url(#clip-path)">
    <path id="Path_2" data-name="Path 2" d="M94.935,49.144c12.075-1.284,24.255-2.95,35.7-6.97a72.221,72.221,0,0,0,16.132-7.888q1.835-1.223,3.575-2.568.853-.659,1.678-1.348c.6-.5,1.031-1.1,1.641-1.582a13.584,13.584,0,0,0,4.472-6.687,11.307,11.307,0,0,0-.423-8.416,5.451,5.451,0,0,0-1.153-1.745,8.921,8.921,0,0,1-.792-.645c-.3-.326-.579-.67-.9-.98a16.2,16.2,0,0,0-3.612-2.553A40.639,40.639,0,0,0,142.014,4.6c-3.562-.9-7.155-1.7-10.782-2.323a167.937,167.937,0,0,0-22.3-2.129,156.029,156.029,0,0,0-22.68.6q-5.394.59-10.826.783c-1.838.068-3.676.06-5.514.106a51.728,51.728,0,0,0-5.159.512c-3.581.452-7.143.879-10.739,1.2a13.413,13.413,0,0,0-2.14.535,16.511,16.511,0,0,1-2.638.287q-2.726.244-5.444.56A165.232,165.232,0,0,0,23.185,8.412a76.576,76.576,0,0,0-10.157,3c-1.642.661-3.228,1.433-4.813,2.206A21.729,21.729,0,0,0,4.2,15.933,10.334,10.334,0,0,0,.087,22.2,10.2,10.2,0,0,0,1.87,29.117C4.44,33.052,9.109,35.139,13.6,36.51c2.46.751,4.981,1.282,7.476,1.911q5.408,1.362,10.933,2.248a182.778,182.778,0,0,0,21.464,2.059c15.037.642,30.087.649,45.134.418,15.018-.231,30.019-.286,44.955-1.976q5.283-.6,10.534-1.41c.685-.106.394-1.092-.288-.987q-10.717,1.657-21.559,2.409c-7.272.513-14.535.594-21.822.732-14.576.275-29.158.529-43.736.206-14.3-.317-28.655-.851-42.622-4.038-2.739-.625-5.49-1.272-8.2-2a38.32,38.32,0,0,1-6.8-2.4,16.213,16.213,0,0,1-5.522-4.08,10.029,10.029,0,0,1-2.458-6.644c.157-2.632,1.969-4.853,4.068-6.446a24.813,24.813,0,0,1,4.271-2.337c1.564-.761,3.138-1.511,4.774-2.125a86.352,86.352,0,0,1,9.84-2.793q5-1.217,10.077-2.1,5.177-.9,10.408-1.486,2.5-.282,5.009-.5a19.79,19.79,0,0,0,2.38-.236,16.87,16.87,0,0,1,2.352-.572c3.42-.237,6.8-.721,10.2-1.156,1.752-.225,3.532-.482,5.3-.549,1.684-.063,3.374-.029,5.059-.085,7.238-.24,14.4-1.23,21.643-1.45a191.61,191.61,0,0,1,21.813.616,142.3,142.3,0,0,1,21.5,3.368,55.189,55.189,0,0,1,9.545,2.862,17.708,17.708,0,0,1,3.917,2.318,13.3,13.3,0,0,1,1.6,1.543,12.479,12.479,0,0,1,1.436,1.464,10.154,10.154,0,0,1,.782,8.641,13.636,13.636,0,0,1-1.777,3.659,11.38,11.38,0,0,1-1.207,1.441c-.558.567-1.262,1-1.8,1.574a35.867,35.867,0,0,1-6.99,5.4,66.973,66.973,0,0,1-7.717,4.236c-10.635,4.98-22.406,7.328-34.086,8.867-2.842.374-5.692.7-8.544,1-.684.073-.692,1.1,0,1.023" transform="translate(0 0)" fill="#d3ff1a"/>
  </g>
</svg>
