 <svg width="0" height="0" class="hidden">
  <symbol xmlns="http://www.w3.org/2000/svg" xmlns:xlink="http://www.w3.org/1999/xlink" viewBox="0 0 17.957 7.638" id="arrow-right">
    <defs>
      <clipPath id="clip-path">
        <rect id="Rectangle_52" width="17.958" height="7.638" fill="#200adf"></rect>
      </clipPath>
    </defs>
    <g id="Group_32" opacity="1">
      <g id="Group_26" clip-path="url(#clip-path)">
        <path id="Path_14" d="M15.717,1.806A11.856,11.856,0,0,1,12.879.192a.7.7,0,0,0-.962,0,.686.686,0,0,0,0,.962,11.836,11.836,0,0,0,2.561,1.578c.246.115.5.224.745.331l-7.129.005c-2.468,0-4.953-.077-7.414.143a.7.7,0,0,0-.68.68.685.685,0,0,0,.68.68c2.46-.22,4.946-.141,7.414-.143l6.377,0c-.146.084-.291.167-.435.254-.873.528-1.713,1.108-2.552,1.687a.7.7,0,0,0-.244.931.687.687,0,0,0,.931.244C13.1,6.9,14.036,6.253,15.014,5.68c.487-.285.985-.553,1.5-.791s1.127-.379,1.352-.943c.526-1.32-1.3-1.768-2.146-2.14m.439,1.647c.037.015.072.032.109.047l-.078.041a.705.705,0,0,0-.03-.088m.439.211a.109.109,0,0,0,.027.012c-.015,0-.023,0-.027-.012" transform="translate(0 0)" fill="#200adf"></path>
      </g>
    </g>
  </symbol>
  <symbol xmlns="http://www.w3.org/2000/svg" viewBox="0 0 17.957 7.638" id="arrow-right-accent">
    <defs>
      <clipPath id="clip-path">
        <path id="Rectangle_52" fill="#D3FF1A" d="M0 0h17.958v7.638H0z"></path>
      </clipPath>
    </defs>
    <g id="Group_32" opacity="1">
      <g id="Group_26" clip-path="url(#clip-path)">
        <path id="Path_14" fill="#D3FF1A" d="M15.717 1.806A11.856 11.856 0 0 1 12.879.192a.7.7 0 0 0-.962 0 .686.686 0 0 0 0 .962 11.836 11.836 0 0 0 2.561 1.578c.246.115.5.224.745.331l-7.129.005c-2.468 0-4.953-.077-7.414.143a.7.7 0 0 0-.68.68.685.685 0 0 0 .68.68c2.46-.22 4.946-.141 7.414-.143h6.377c-.146.084-.291.167-.435.254-.873.528-1.713 1.108-2.552 1.687a.7.7 0 0 0-.244.931.687.687 0 0 0 .931.244c.929-.644 1.865-1.291 2.843-1.864.487-.285.985-.553 1.5-.791s1.127-.379 1.352-.943c.526-1.32-1.3-1.768-2.146-2.14m.439 1.647.109.047-.078.041a.705.705 0 0 0-.03-.088m.439.211a.109.109 0 0 0 .027.012c-.015 0-.023 0-.027-.012"></path>
      </g>
    </g>
  </symbol>
</svg>