<svg id="Group_229" data-name="Group 229" xmlns="http://www.w3.org/2000/svg" xmlns:xlink="http://www.w3.org/1999/xlink" width="151" height="60" viewBox="0 0 151 60">
  <defs>
    <clipPath id="clip-path">
      <path id="path2522" d="M291.1-923.6H420.5v19.807H291.1Z" transform="translate(-291.103 923.601)" fill="#200adf"/>
    </clipPath>
  </defs>
  <g id="Rectangle_89" data-name="Rectangle 89" fill="#200adf" stroke="#707070" stroke-width="1" opacity="0">
    <rect width="151" height="60" stroke="none"/>
    <rect x="0.5" y="0.5" width="150" height="59" fill="none"/>
  </g>
  <g id="g2452" transform="translate(11.237 20.289)">
    <path id="path2492" d="M301.3-904.384h-8.621a1.991,1.991,0,0,1,0-.621c2.428-.141,2.953-.35,2.953-2v-10.969c0-1.028-.338-1.191-1.425-1.191h-.989c-.043-.29-.039-.458.056-.569.248-.293,1.28-.348,3.1-.348h4.718c6.273,0,9.453,2.641,9.453,7.848C310.539-907.1,307.342-904.384,301.3-904.384ZM298.391-919a.145.145,0,0,0-.146.145v11.691c0,1.56.635,1.8,2.818,1.8,3.29,0,6.653-.762,6.653-6.42,0-4.65-2.462-7.211-6.933-7.211h-2.393" transform="translate(-292.383 921.951)" fill="#200adf"/>
    <path id="path2494" d="M336.69-904.323h-7.414a2,2,0,0,1,0-.619c1.739-.052,2.369-.172,2.569-.483a.627.627,0,0,0-.022-.6l-1.464-3.51a.145.145,0,0,0-.135-.089h-5.995a.144.144,0,0,0-.136.093L323.143-907c-.329.845-.451,1.3-.248,1.6.183.269.583.323,1.127.323H325.9a.769.769,0,0,1-.055.61.488.488,0,0,1-.409.144h-6.53a2,2,0,0,1,.006-.631c1.747-.233,2.006-.436,2.639-1.933l4.6-10.9c.771-1.8,1.037-2.073,2.026-2.073h.782a6.545,6.545,0,0,0,.6,1.636l5.367,12.245c.282.666.6.9,1.831.9h.413a.8.8,0,0,1-.065.614A.511.511,0,0,1,336.69-904.323Zm-9.528-12.62h0a.146.146,0,0,0-.134.092l-2.417,6.041a.15.15,0,0,0,.014.137.146.146,0,0,0,.121.063h4.949a.146.146,0,0,0,.122-.063.145.145,0,0,0,.013-.137l-2.533-6.043a.144.144,0,0,0-.133-.09" transform="translate(-299.586 921.89)" fill="#200adf"/>
    <path id="path2496" d="M353.6-904.208h-6.957a1.439,1.439,0,0,1,.01-.633c1.8-.3,2.33-.56,2.33-1.615v-11.109c0-.968-.338-1.121-1.425-1.121h-1a.648.648,0,0,1,.073-.524,1,1,0,0,1,.784-.23h6.532a2.1,2.1,0,0,1,0,.621c-2.009.154-2.352.653-2.352,1.694v11.042c0,.966.4,1.122,1.355,1.122h1.137c.066.313.057.511-.024.615s-.224.14-.463.14" transform="translate(-307.179 921.775)" fill="#200adf"/>
    <path id="path2498" d="M372.851-904.142l-6.373-12.606a.145.145,0,0,0-.13-.081l-.029,0a.146.146,0,0,0-.117.133l-.744,10.434c-.029.385-.053.692.156.917.266.286.844.377,2.384.377h1.138c.063.31.053.512-.033.619a.529.529,0,0,1-.433.137h-7.5a1.9,1.9,0,0,1,0-.621c2.488-.152,2.786-.642,2.861-1.71l.953-10.922a.959.959,0,0,0-.153-.76c-.258-.293-.851-.416-2.246-.463a.629.629,0,0,1,.08-.508.96.96,0,0,1,.78-.249h4.6l5.794,11.1a.147.147,0,0,0,.13.078h0a.149.149,0,0,0,.129-.082l5.328-11.1h5.3a1.347,1.347,0,0,1,0,.619c-1.224.087-1.836.253-2.1.571a.961.961,0,0,0-.159.768l1.114,11.342c.08.86.586.945,2.242,1.162.027.35,0,.541-.1.646a.556.556,0,0,1-.421.125H377.22a1.357,1.357,0,0,1,0-.621l1.152-.064c1.114-.065,1.776-.172,2.1-.548a1.472,1.472,0,0,0,.2-1.124L379.625-916.7a.146.146,0,0,0-.121-.129.079.079,0,0,0-.024,0,.148.148,0,0,0-.131.082l-5.578,11.713c-.378.755-.531.878-.92.891" transform="translate(-311.187 921.775)" fill="#200adf"/>
    <path id="path2500" d="M410.942-904.209h-11.1a2.234,2.234,0,0,1,0-.624c2.123-.14,2.789-.465,2.789-2.09v-10.643c0-.966-.42-1.121-1.424-1.121h-1a.653.653,0,0,1,.073-.525.993.993,0,0,1,.784-.231h7.111a2.113,2.113,0,0,1,0,.623c-2.335.138-2.932.372-2.932,2v10.274c0,1,.678,1.122,1.191,1.122h1.487c1.822,0,2.08-.193,3.061-2.292l.614-1.358a.7.7,0,0,1,.549.187.672.672,0,0,1-.014.595,33.528,33.528,0,0,0-1.19,4.088" transform="translate(-321.806 921.776)" fill="#200adf"/>
    <path id="path2502" d="M432.891-904.21h-12.6a1.391,1.391,0,0,1,0-.62c2.415-.141,2.937-.348,2.937-2v-10.736c0-.968-.333-1.124-1.4-1.124h-.988a.676.676,0,0,1,.1-.534,1.056,1.056,0,0,1,.8-.219h10.927c.065.919.19,1.958.363,3.016a.872.872,0,0,1-.1.708.627.627,0,0,1-.5.177.441.441,0,0,1-.05,0l-.274-.948c-.405-1.452-.942-1.894-2.3-1.894h-3.719a.145.145,0,0,0-.146.145v5.974a.146.146,0,0,0,.146.146h2.44c.8,0,.976-.312,1.05-.967l.145-1.056h.152a.542.542,0,0,1,.414.116.841.841,0,0,1,.115.611c-.07,1.447-.071,2.994-.005,4.487a.976.976,0,0,1-.264.035.9.9,0,0,1-.269-.039c-.3-1.747-.615-2.062-1.338-2.062h-2.44a.147.147,0,0,0-.146.147v4.09c0,.92.279,1.332,1.935,1.332h2c1.823,0,2.08-.194,3.061-2.293l.612-1.358a.677.677,0,0,1,.535.189.669.669,0,0,1,0,.6,33.5,33.5,0,0,0-1.189,4.083" transform="translate(-327.416 921.776)" fill="#200adf"/>
    <path id="path2504" d="M460.333-903.9a7,7,0,0,1-5.2-1.918,10.47,10.47,0,0,1-2.176-2.633c-.606-1.088-.7-1.19-2.173-1.19h-1.557a.146.146,0,0,0-.146.146v3.417c0,.817.351,1.051,1.564,1.051h1.052c.025.338-.005.524-.1.626a.581.581,0,0,1-.443.13h-7.2a2.271,2.271,0,0,1,0-.621c1.972-.146,2.511-.422,2.511-1.929v-10.738c0-1.018-.44-1.191-1.425-1.191h-1a.658.658,0,0,1,.06-.526,1.033,1.033,0,0,1,.786-.3c1.112-.093,2.471-.093,5.755-.093,4.245,0,6.779,1.927,6.779,5.153a4.535,4.535,0,0,1-3.048,4.213.144.144,0,0,0-.088.109.143.143,0,0,0,.045.132c.018.016,1.756,1.615,2.632,2.33,3.021,2.424,4.105,2.7,6.086,2.7a.647.647,0,0,1-.115.527C462.625-904.1,461.75-903.9,460.333-903.9Zm-11.11-14.713a.147.147,0,0,0-.146.146v7.623a.147.147,0,0,0,.146.147h1.115c2.178,0,4.307-.282,4.307-3.654,0-2.868-1.514-4.261-4.63-4.261h-.792" transform="translate(-333.916 921.837)" fill="#200adf"/>
    <path id="path2506" d="M294.152-919.077h-1.115c-.163-1-.07-1.207,3.276-1.207h4.718c6.693,0,9.6,3.021,9.6,7.995,0,4.786-2.742,7.994-9.389,7.994H292.5a1.974,1.974,0,0,1,0-.905c2.487-.14,2.928-.3,2.928-1.861V-918.03C295.43-918.935,295.2-919.077,294.152-919.077Zm13.363,7.229c0-4.463-2.324-7.066-6.787-7.066h-2.393v11.691c0,1.418.511,1.65,2.672,1.65,3.974,0,6.507-1.278,6.507-6.274" transform="translate(-292.327 922.006)" fill="#200adf"/>
    <path id="path2508" d="M329.034-920.06a5.867,5.867,0,0,0,.6,1.72l5.368,12.247c.256.6.511.814,1.7.814h.534c.14.674,0,1.045-.6,1.045H329.1a1.972,1.972,0,0,1,0-.9c2.534-.071,2.789-.279,2.534-.883l-1.465-3.51h-6L323.224-907c-.534,1.372-.534,1.721.744,1.721h2c.163.674,0,1.045-.58,1.045h-6.647a1.974,1.974,0,0,1,0-.9c1.79-.234,2-.373,2.626-1.861l4.6-10.9c.767-1.79,1.069-2.162,2.162-2.162Zm.6,9.248-2.534-6.041-2.417,6.041h4.95" transform="translate(-299.531 921.945)" fill="#200adf"/>
    <path id="path2510" d="M354.011-919.642a1.98,1.98,0,0,1,0,.905c-2.022.141-2.325.582-2.325,1.558v11.038c0,.814.233.977,1.209.977h1.255c.163.674.094,1.045-.6,1.045h-7.065a1.493,1.493,0,0,1,0-.905c1.859-.3,2.3-.536,2.3-1.488v-11.109c0-.838-.209-.976-1.279-.976h-1.115c-.14-.606,0-1.046.977-1.046h6.647" transform="translate(-307.123 921.83)" fill="#200adf"/>
    <path id="path2512" d="M384.792-919.642a1.5,1.5,0,0,1,0,.905c-2.161.141-2.3.512-2.231,1.185l1.115,11.343c.07.742.442.812,2.232,1.045.069.674,0,1.045-.651,1.045h-8.2a1.51,1.51,0,0,1,0-.905l1.256-.071c1.952-.115,2.277-.373,2.16-1.51l-1.045-10.133-5.578,11.714c-.419.836-.6.976-1.139.976l-6.415-12.689-.744,10.434c-.07.907-.07,1.14,2.394,1.14H369.2c.162.674.07,1.045-.581,1.045h-7.623a1.98,1.98,0,0,1,0-.905c2.556-.14,2.766-.6,2.835-1.581l.954-10.924c.069-.744-.071-1-2.371-1.068-.14-.535,0-1.046.977-1.046h4.694l5.834,11.178,5.369-11.178h5.507" transform="translate(-311.132 921.83)" fill="#200adf"/>
    <path id="path2514" d="M408.239-919.642a1.981,1.981,0,0,1,0,.905c-2.44.141-2.9.349-2.9,1.86V-906.6c0,.766.4.977,1.046.977h1.487c1.72,0,1.951-.117,2.928-2.208l.651-1.441c.674-.024,1.022.255.767.976a32.967,32.967,0,0,0-1.209,4.182H399.664a2.39,2.39,0,0,1,0-.905c2.254-.14,2.767-.443,2.767-1.952v-10.644c0-.838-.3-.976-1.28-.976h-1.115c-.139-.606,0-1.046.977-1.046h7.227" transform="translate(-321.75 921.83)" fill="#200adf"/>
    <g id="g2516" transform="translate(0 0)">
      <g id="g2518" clip-path="url(#clip-path)">
        <path id="path2524" d="M431.567-920.586c.069,1.045.208,2.137.371,3.137.116.721-.163,1.115-.906,1.046l-.3-1.046c-.4-1.417-.883-1.79-2.161-1.79h-3.719v5.974h2.441c.7,0,.836-.233.906-.838l.162-1.184h.279c.464,0,.721.162.673.882-.069,1.464-.069,3.069,0,4.579a1.088,1.088,0,0,1-.812,0c-.3-1.813-.6-2.021-1.208-2.021h-2.441v4.09c0,.837.209,1.186,1.79,1.186h2c1.72,0,1.952-.117,2.929-2.208l.65-1.441c.674-.024,1,.279.766.976a33.789,33.789,0,0,0-1.209,4.183H418.946a1.513,1.513,0,0,1,0-.906c2.463-.14,2.9-.3,2.9-1.86v-10.737c0-.837-.209-.976-1.255-.976H419.48c-.092-.6,0-1.045,1.023-1.045h11.063" transform="translate(-326.182 922.773)" fill="#200adf"/>
        <path id="path2526" d="M443.806-919.6H442.69c-.163-.6,0-1.045.952-1.115,1.116-.093,2.511-.093,5.765-.093,4.461,0,6.925,2.115,6.925,5.3a4.708,4.708,0,0,1-3.138,4.345s1.743,1.6,2.626,2.325c3.068,2.463,4.091,2.672,6.112,2.672.21.813-.371,1.417-2.835,1.417a7.157,7.157,0,0,1-5.3-1.952,10.642,10.642,0,0,1-2.207-2.672c-.581-1.046-.628-1.116-2.046-1.116h-1.557v3.416c0,.674.21.907,1.418.907h1.184c.07.674,0,1.045-.674,1.045H442.6a2.377,2.377,0,0,1,0-.906c2.022-.14,2.487-.373,2.487-1.79v-10.737C445.085-919.464,444.759-919.6,443.806-919.6Zm5.3,7.761c2.3,0,4.16-.372,4.16-3.508s-1.86-4.115-4.485-4.115h-.791v7.623H449.1" transform="translate(-332.682 922.835)" fill="#200adf"/>
      </g>
    </g>
  </g>
</svg>
