<svg id="Group_235" data-name="Group 235" xmlns="http://www.w3.org/2000/svg" width="154" height="62" viewBox="0 0 154 62">
  <g id="Rectangle_89" data-name="Rectangle 89" fill="#200adf" stroke="#707070" stroke-width="1" opacity="0">
    <rect width="154" height="62" stroke="none"/>
    <rect x="0.5" y="0.5" width="153" height="61" fill="none"/>
  </g>
  <g id="layer1" transform="translate(8.133 20.988)">
    <g id="g33435" transform="translate(0 0)">
      <path id="path32965" d="M4298.22-1032.719h12.122l3.031-5.245H4295.19Zm0-20.98-6.06,10.489,3.029,5.247,9.091-15.735Zm18.182,10.489-6.06-10.489h-6.062l9.092,15.735,3.029-5.247" transform="translate(-4292.161 1053.7)" fill="#200adf"/>
      <path id="path32967" d="M4544.184-1003.255v-6.031a2.334,2.334,0,0,1,1.68-.678,2.951,2.951,0,0,1,1.034.179v-2.3a2.175,2.175,0,0,0-.784-.142,2.408,2.408,0,0,0-1.93,1.267h-.05v-1.2h-2.463v8.9h2.514" transform="translate(-4500.398 1019.089)" fill="#200adf"/>
      <path id="path32969" d="M4629.95-1004.405a5.193,5.193,0,0,0,3.141.982c2.2,0,3.6-1.124,3.6-2.926,0-2.944-4.081-2.48-4.081-3.587,0-.553.407-.784,1.153-.784a3.105,3.105,0,0,1,2.163.784l.661-1.678a4.751,4.751,0,0,0-3.011-.946c-2.2,0-3.505,1.054-3.505,2.838,0,2.943,4.056,2.391,4.056,3.586,0,.642-.414.875-1.25.875a3.845,3.845,0,0,1-2.306-.82l-.619,1.676" transform="translate(-4574.076 1019.365)" fill="#200adf"/>
      <path id="path32971" d="M4740.514-1003.439v-6.031a2.069,2.069,0,0,1,1.566-.82c.731,0,.964.356.964,1.534v5.317h2.54v-6.227c0-1.874-.809-2.784-2.307-2.784a3.542,3.542,0,0,0-2.764,1.391h-.053v-1.284H4738v8.9h2.514" transform="translate(-4664.252 1019.273)" fill="#200adf"/>
      <path id="path32973" d="M4799.549-1006.079a3.978,3.978,0,0,1-2.281.714c-1.464,0-2.109-.607-2.179-2.159h5.191c0-3.516-1.016-5.246-3.616-5.246-2.488,0-4.125,1.874-4.125,4.747,0,2.747,1.568,4.443,4.193,4.443a5.835,5.835,0,0,0,3.3-.947Zm-1.766-3.051v.035h-2.677c.019-1.231.5-1.98,1.429-1.98.843,0,1.248.659,1.248,1.945" transform="translate(-4709.77 1019.54)" fill="#200adf" fill-rule="evenodd"/>
      <path id="path32975" d="M4850.552-1003.255v-6.031a2.323,2.323,0,0,1,1.669-.678,2.868,2.868,0,0,1,1.034.179v-2.3a2.173,2.173,0,0,0-.784-.142,2.393,2.393,0,0,0-1.919,1.267h-.06v-1.2h-2.462v8.9h2.522" transform="translate(-4756.082 1019.089)" fill="#200adf"/>
      <path id="path32977" d="M5019.693-1003.439v-6.031a2.088,2.088,0,0,1,1.575-.82c.732,0,.956.356.956,1.534v5.317h2.541v-6.227c0-1.874-.8-2.784-2.308-2.784a3.546,3.546,0,0,0-2.764,1.391h-.051v-1.284h-2.463v8.9h2.514" transform="translate(-4897.252 1019.273)" fill="#200adf"/>
      <path id="path32979" d="M5077.456-1018.019v-4.139h.052l2.712,4.139h3.03l-3.375-4.978,3.055-3.926h-2.746l-2.678,3.55h-.052v-6.547h-2.506v11.9h2.506" transform="translate(-4945.467 1033.854)" fill="#200adf"/>
      <path id="path32981" d="M4475.991-1018.019h3.261c4.029,0,6.009-2.195,6.009-5.924,0-3.835-1.6-5.977-5.456-5.977h-3.815Zm2.643-1.963v-7.993h1.1c2.161,0,2.781,1.66,2.781,4.067,0,2.57-1.015,3.926-2.9,3.926h-.981" transform="translate(-4445.583 1033.854)" fill="#200adf" fill-rule="evenodd"/>
      <path id="path32983" d="M4583.288-1006.079a3.98,3.98,0,0,1-2.281.714c-1.463,0-2.109-.607-2.179-2.159h5.192c0-3.516-1.017-5.246-3.626-5.246-2.479,0-4.115,1.874-4.115,4.747,0,2.747,1.568,4.443,4.193,4.443a5.845,5.845,0,0,0,3.3-.947Zm-1.765-3.051v.035h-2.678c.018-1.231.5-1.98,1.43-1.98.835,0,1.249.659,1.249,1.945" transform="translate(-4529.282 1019.54)" fill="#200adf" fill-rule="evenodd"/>
      <path id="path32985" d="M4685.885-1018.019v-11.9h-2.5v3.925h-.084a2.112,2.112,0,0,0-1.912-1.053c-2.076,0-3.462,1.911-3.462,4.675,0,2.694,1.215,4.444,3.212,4.444a2.654,2.654,0,0,0,2.246-1.143h.052v1.053Zm-2.5-6.084v3.389a1.771,1.771,0,0,1-1.394.821c-.965,0-1.464-.875-1.464-2.534,0-1.749.543-2.677,1.464-2.677.594,0,.981.3,1.394,1" transform="translate(-4614.117 1033.854)" fill="#200adf" fill-rule="evenodd"/>
      <path id="path32987" d="M4903.09-1018.019h3.556c3.608,0,5.1-.928,5.1-3.3a2.6,2.6,0,0,0-2.5-2.837v-.053a2.591,2.591,0,0,0,2.09-2.731,2.907,2.907,0,0,0-1.083-2.39c-.733-.5-1.483-.571-3.592-.589l-3.572.035Zm2.607-1.891v-3.211h.682c2.349,0,2.676.41,2.676,1.569,0,1.232-.773,1.642-2.754,1.642Zm0-5.067v-3.034h.7c1.765,0,2.264.374,2.264,1.464,0,1.249-.749,1.57-2.608,1.57h-.354" transform="translate(-4802.035 1033.854)" fill="#200adf" fill-rule="evenodd"/>
      <path id="path32989" d="M4969-1003.706v-5.657c0-2.658-1-3.408-3.144-3.408a7.217,7.217,0,0,0-3.865,1.035l.516,1.641a5.058,5.058,0,0,1,2.626-.768c.938,0,1.368.34,1.368,1.16v.428h-.266c-3.144,0-4.693,1.053-4.693,3.2a2.19,2.19,0,0,0,2.412,2.463,3.117,3.117,0,0,0,2.547-1.107h.051v1.017Zm-2.5-4.033v1.642a1.878,1.878,0,0,1-1.5.732c-.628,0-.947-.321-.947-.981,0-1.071,1.016-1.392,1.98-1.392h.464" transform="translate(-4850.816 1019.54)" fill="#200adf" fill-rule="evenodd"/>
    </g>
  </g>
</svg>
