<svg xmlns="http://www.w3.org/2000/svg" width="152" height="60" viewBox="0 0 152 60">
  <g id="Group_227" data-name="Group 227" transform="translate(0)">
    <g id="Rectangle_84" data-name="Rectangle 84" transform="translate(0)" fill="#200adf" stroke="#707070" stroke-width="1" opacity="0">
      <rect width="152" height="60" stroke="none"/>
      <rect x="0.5" y="0.5" width="151" height="59" fill="none"/>
    </g>
    <g id="Deutsche_Telekom_2022" transform="translate(61.583 13.287)">
      <path id="Path_44" data-name="Path 44" d="M-48.083,5.828V3.471H-49.7c-2.794,0-4.077-1.661-4.077-4.106v-24.7h.48c5.233,0,8.557,3.473,8.557,8.58v.458h1.99V-27.69H-70.847V-16.3h1.99v-.458c0-5.107,3.323-8.58,8.557-8.58h.48v24.7c0,2.445-1.283,4.106-4.077,4.106h-1.62V5.828Z" transform="translate(70.848 27.69)" fill="#200adf"/>
      <path id="Path_45" data-name="Path 45" d="M-6.55,20.5h-6.681V13.8H-6.55Z" transform="translate(34.646 1.621)" fill="#200adf"/>
      <path id="Path_46" data-name="Path 46" d="M-64.168,20.5h-6.681V13.8h6.681Z" transform="translate(70.849 1.621)" fill="#200adf"/>
    </g>
  </g>
</svg>
