<svg id="Group_237" data-name="Group 237" xmlns="http://www.w3.org/2000/svg" width="152" height="60" viewBox="0 0 152 60">
  <g id="Rectangle_88" data-name="Rectangle 88" fill="#200adf" stroke="#707070" stroke-width="1" opacity="0">
    <rect width="152" height="60" stroke="none"/>
    <rect x="0.5" y="0.5" width="151" height="59" fill="none"/>
  </g>
  <path id="bmw-svgrepo-com" d="M19.807,0A19.807,19.807,0,1,0,39.614,19.807,19.808,19.808,0,0,0,19.807,0Zm0,1.287A18.519,18.519,0,1,1,1.289,19.807,18.518,18.518,0,0,1,19.807,1.287Zm-1.119,1.04c-.545.023-1.089.069-1.637.129l-.177,4.859q.583-.1,1.172-.155l.116-3.281-.021-.226.071.215,1.1,2.458h1l1.1-2.456.066-.216-.017.226.116,3.281c.383.036.781.089,1.172.155l-.18-4.859q-.816-.092-1.637-.129L19.845,5.01l-.038.2-.038-.2L18.688,2.327ZM29.74,5.338,27.193,9.346c.322.248.746.612,1.018.862l2.4-1.245.152-.114L30.648,9l-1.241,2.4c.269.289.657.756.875,1.04l4.011-2.548q-.369-.477-.759-.938l-2.54,1.674-.173.152.129-.19,1.122-2.238-.792-.792L29.04,8.684l-.19.129L29,8.637l1.68-2.54C30.384,5.846,30.1,5.617,29.74,5.338ZM9.078,6.247c-.594.061-1.053.467-2.3,1.857q-.648.735-1.249,1.509L8.953,12.86c1.134-1.254,1.594-1.72,2.489-2.662.632-.668.99-1.436.357-2.174a1.23,1.23,0,0,0-1.4-.289l-.046.017.017-.043a1.155,1.155,0,0,0-.4-1.212,1.2,1.2,0,0,0-.886-.248Zm.01,1.015a.424.424,0,0,1,.508.33.748.748,0,0,1-.254.631c-.363.413-1.7,1.812-1.7,1.812L6.977,9.4A21.478,21.478,0,0,1,8.73,7.492a.908.908,0,0,1,.358-.229Zm10.719.8A11.742,11.742,0,0,0,8.121,18.6v0A11.747,11.747,0,1,0,19.807,8.063Zm-9.139.4a.416.416,0,0,1,.406.5,1.275,1.275,0,0,1-.338.525L9.01,11.333l-.693-.66s1.3-1.373,1.725-1.814a1.613,1.613,0,0,1,.393-.338.546.546,0,0,1,.231-.061ZM19.807,9.6a10.192,10.192,0,0,1,10.2,10.2h-10.2v10.2a10.192,10.192,0,0,1-10.2-10.2h10.2Z" transform="translate(56.233 10.534)" fill="#200adf"/>
</svg>
