<svg id="Group_236" data-name="Group 236" xmlns="http://www.w3.org/2000/svg" width="154" height="60" viewBox="0 0 154 60">
  <g id="Rectangle_85" data-name="Rectangle 85" fill="#200adf" stroke="#707070" stroke-width="1" opacity="0">
    <rect width="154" height="60" stroke="none"/>
    <rect x="0.5" y="0.5" width="153" height="59" fill="none"/>
  </g>
  <g id="layer1" transform="translate(35.976 7.874)">
    <g id="g10459" transform="translate(0 0)">
      <path id="path5197" d="M205.859,437.387c22.591,0,40.927,10.215,40.927,22.8s-18.336,22.8-40.927,22.8-40.918-10.211-40.918-22.8S183.277,437.387,205.859,437.387Zm0,2.056c-21.439,0-38.852,9.311-38.852,20.742s17.413,20.724,38.852,20.724,38.852-9.289,38.852-20.724S227.3,439.443,205.859,439.443Zm-7.188,22.93h-8.054a2.681,2.681,0,0,0,2.875,2.9,2.323,2.323,0,0,0,2.3-1.4h2.637c-.676,2.4-2.637,3.508-5.055,3.508-3.427,0-5.56-2.358-5.56-5.726a5.461,5.461,0,0,1,5.56-5.747C197.091,455.91,198.88,459.026,198.671,462.374Zm-5.369-4.409a2.548,2.548,0,0,0-2.666,2.541h5.227C195.663,458.983,195.025,457.965,193.3,457.965Zm40.242,4.409h-8.054a2.674,2.674,0,0,0,2.866,2.9,2.327,2.327,0,0,0,2.313-1.4h2.637c-.676,2.4-2.637,3.508-5.055,3.508-3.437,0-5.56-2.358-5.56-5.726a5.461,5.461,0,0,1,5.56-5.747C231.963,455.91,233.753,459.026,233.543,462.374Zm-5.379-4.409a2.56,2.56,0,0,0-2.666,2.541h5.236C230.535,458.983,229.9,457.965,228.164,457.965Zm-54.436,9.124h2.989V460.6h6.455v6.484h2.989v-15.06h-2.989V458.2h-6.455v-6.166h-2.989Zm26.59,0h2.818V461.2c0-2.211.781-3.116,2.4-3.116,1.39,0,2.018.885,2.018,2.673v6.33h2.808v-6.695c0-2.694-.8-4.484-3.989-4.484a3.878,3.878,0,0,0-3.323,1.811h-.067v-1.516h-2.666Zm12.443,0h2.808v-5.894l4.151,5.894h3.494l-4.57-6.107,4.046-4.776h-3.351l-3.77,4.692v-8.869h-2.808Zm22.429,0H238v-15.06H235.19v15.06" transform="translate(-164.941 -437.387)" fill="#200adf" fill-rule="evenodd"/>
    </g>
  </g>
</svg>
