<svg id="Group_230" data-name="Group 230" xmlns="http://www.w3.org/2000/svg" width="153" height="60" viewBox="0 0 153 60">
  <g id="Rectangle_80" data-name="Rectangle 80" fill="#200adf" stroke="#707070" stroke-width="1" opacity="0">
    <rect width="153" height="60" stroke="none"/>
    <rect x="0.5" y="0.5" width="152" height="59" fill="none"/>
  </g>
  <g id="i-logo" transform="translate(14.378 18.604)">
    <g id="logo" transform="translate(0 0)">
      <path id="Path_36" data-name="Path 36" d="M125.04,18.015H108.258v-.569H125.04Zm-8.363-3.186,1.593-1.536.626.626-1.707,1.422c-.114.171-.228.455-.341.626H115.6a2.116,2.116,0,0,1,1.081-1.138ZM111.33,5.158c-.057,0-1.308.341-1.308.341a8.017,8.017,0,0,0-.853.4c-.284.171-.569.455-.569.626l1.138.284a4.347,4.347,0,0,1,.512-.512l.284-.114.91-.967c.057-.057.057-.114-.142-.057Zm7.68,3.072a25.379,25.379,0,0,1-1.934-2.389,6.889,6.889,0,0,0,.455-3.357,8.729,8.729,0,0,0-.8-1.195c-.114-.171-.626-.74-.853-.74-.057,0-.114,0-.114.057l.057.626c-.74.455-1.593,1.024-2.333,1.593a2.344,2.344,0,0,0,.057.683,1.428,1.428,0,0,0,.4.228,14.551,14.551,0,0,1,1.536-.284l-.967,1.422-1.138.8-1.365-.455c-.114,0-.171,0-.228.057l-1.024,1.081a.3.3,0,0,0-.114.228l-.057,1.195v.4a2.076,2.076,0,0,0,.4,1.308l.626-.967a2.463,2.463,0,0,1-.284-.683V6.808l.626-.455,1.707,1.195a8.591,8.591,0,0,0,.91,1.365,16.14,16.14,0,0,0,2.446,1.764,7.27,7.27,0,0,0,.341,1.308l2.048,2.1-1.195,1.536a1.5,1.5,0,0,0-.8,1.252h1.422l.171-.8,1.707-1.877c.114-.114.114-.171.057-.284l-.455-1.593a3,3,0,0,0,.74-1.764c0-1.536-1.536-1.934-2.048-2.361Zm2.56,2.5a7.427,7.427,0,0,0-.4-1.081s.057-.057.228,0a10.557,10.557,0,0,1,1.024.683c.455.626.74,3.356.74,4.324a4.972,4.972,0,0,1-1.365-.853Zm-43.577-.626c0-1.024-.341-1.82-1.195-1.82s-1.252.8-1.252,1.82v6.77H76.57v1.081H70.824V16.877h1.081V7.547H70.824V6.495h4.494V8.259h.057a3.283,3.283,0,0,1,3.015-1.991,2.884,2.884,0,0,1,3.015,2.389,10.964,10.964,0,0,1,.171,1.877v6.372h1.365v1.081H77.936l.057-7.908m-23.268,0c0-1.024-.341-1.82-1.195-1.82s-1.252.8-1.252,1.82v6.77H53.3V17.93H47.556V16.849h1.081v-9.3H47.556V6.495h4.494V8.259h.057a3.283,3.283,0,0,1,3.015-1.991,2.884,2.884,0,0,1,3.015,2.389,10.964,10.964,0,0,1,.171,1.877v6.372h1.365v1.081H54.668l.057-7.908Zm33.167-2.56V16a.683.683,0,0,0,.74.74,2.481,2.481,0,0,0,.683-.114v1.024a4.261,4.261,0,0,1-2.219.455c-1.764,0-2.844-.853-2.844-2.731V7.547H83.056v-.74c1.365-1.081,2.958-2.332,4.21-3.356h.683V6.495h1.735V7.519ZM16.153.55s2.788,2.788,4.039,4.21V5.841a8.9,8.9,0,0,0-5.917-2.332c-5.177,0-8.42,3.925-8.42,8.761s3.072,8.7,8.42,8.7a8.152,8.152,0,0,0,5.973-2.532v1.024C18.656,21.685,15.7,23.107,12,23.107A10.613,10.613,0,0,1,.85,12.3,11,11,0,0,1,12,1.375a13.221,13.221,0,0,1,4.153.683ZM69.118,14.943a3.061,3.061,0,0,1-2.5,1.081c-1.024,0-2.674-.569-2.731-3.243h6.144c0-.228.057-.626.057-.853,0-3.243-1.308-5.632-4.779-5.632s-5.234,2.674-5.234,5.973,1.764,5.917,5.234,5.917A4.7,4.7,0,0,0,69.8,15.512Zm-5.291-3.3c0-3.015.228-4.153,1.252-4.153s1.252,1.081,1.308,4.153Zm-50.689.569c0-3.527.341-5.063,1.536-5.063s1.536,1.536,1.536,5.063-.341,5.063-1.536,5.063-1.536-1.536-1.536-5.063m-4.267.057c0,3.47,2.1,6.315,5.8,6.315s5.8-2.844,5.8-6.315-2.1-6.343-5.8-6.343-5.8,2.844-5.8,6.315m19.684-2.162c0-1.024-.341-1.82-1.195-1.82s-1.252.8-1.252,1.82v6.77h1V17.93H21.387V16.849h1.081v-9.3H21.387V6.495h4.494V8.259h.057a3.283,3.283,0,0,1,3.015-1.991,2.884,2.884,0,0,1,3.015,2.389,10.963,10.963,0,0,1,.171,1.877v6.372H33.5v1.081H28.5V10.107ZM41.583,3.423c0,1.024.91,1.707,2.219,1.707s2.219-.683,2.219-1.707S45.11,1.716,43.8,1.716s-2.219.74-2.219,1.707m-3.129,4.1V16a.683.683,0,0,0,.74.74,2.481,2.481,0,0,0,.683-.114v1.024a4.261,4.261,0,0,1-2.219.455c-1.764,0-2.844-.853-2.844-2.731V7.547H33.618v-.74c1.365-1.081,2.958-2.332,4.21-3.356h.654V6.495H39.9V7.519Zm67.13,9.387h1.422v1.081h-5.063V3.338h-1.252V2.257h4.921V16.934ZM95.856,12.3a1.087,1.087,0,0,0-.8-.228c-1.081,0-1.308,1.081-1.308,2.162s.341,1.934,1.252,1.934a1,1,0,0,0,.853-.341Zm.114,4.324a3.516,3.516,0,0,1-3.015,1.593c-1.877,0-3.015-1.593-3.015-3.527,0-2.276,1.65-3.755,4.267-3.755a4.847,4.847,0,0,1,1.65.228v-.74a1.946,1.946,0,0,0-2.1-2.1,3.2,3.2,0,0,0-2.617,1.365l-.626-.8a5.467,5.467,0,0,1,4.551-2.617c2.788,0,4.437,1.65,4.437,4.153v6.485h1.195v1.081H96.026ZM40.957,17.987V16.906h1.024V7.547H40.957V6.495h4.665V16.906H46.7v1.081Z" transform="translate(-0.85 -0.55)" fill="#200adf"/>
    </g>
  </g>
</svg>
