<svg xmlns="http://www.w3.org/2000/svg" width="154" height="60" viewBox="0 0 154 60">
  <g id="Group_234" data-name="Group 234" transform="translate(0)">
    <g id="Rectangle_82" data-name="Rectangle 82" transform="translate(0)" fill="#200adf" stroke="#707070" stroke-width="1" opacity="0">
      <rect width="154" height="60" stroke="none"/>
      <rect x="0.5" y="0.5" width="153" height="59" fill="none"/>
    </g>
    <g id="Ebene_x0020_1" transform="translate(32.939 17.917)">
      <path id="path2006" d="M61.991,11.876c0,2.838-1.768,6.566-3.046,9.029-2.007,3.876-4.723,6.2-9.138,6.473-3.9.242-12.723.92-11.178-5.657.67-2.847,2.159-5.355,3.073-8.1,3.072-6.129,10.8-7.3,16.943-5.766,2.079.756,3.185,1.768,3.345,4.025Zm-10.307.272c-3.157,0-3.541,4.406-4.134,6.772-.149.894-1.15,3.889.462,3.889,3.8.763,4.148-3.4,4.787-6.174a10.969,10.969,0,0,0,.489-3.78c0-.779-1.086-.655-1.6-.707Zm-21.729.19C29.564,19.8,24.323,19.22,18.1,19.191c-2.366-.01-4.786-.163-7.125-.163-.863.875,1.636,3.531,2.339,3.971a5.947,5.947,0,0,0,7.343-1.088c1.038,0,12.178-1.456,8.322,2.393a16.126,16.126,0,0,1-6.908,3.209C14.428,29.32-2.073,24.928,3.492,14.16,7.3,7.9,15.537,4.474,22.339,2.711a15.482,15.482,0,0,1,1.9-.272c4.839-.361,5.711,6.317,5.711,9.9Zm-7.1-.6a6.419,6.419,0,0,0-.19-2.04c-.747-3.009-8.584,3.417-9.519,4.351-.117.236-.029.163.136.245,2.6,0,5.208-.027,7.805-.027,1.71-.282,1.768-.8,1.768-2.529ZM37.95,15.574c-.59,1.188-.458,2.745-1.659,3.644-1.643,1.229-5.78,1.232-4.868-1.74.863-2.826,2.5-4.028,5.466-3.291.725.243.9.723,1.061,1.387ZM89.676,11.9a10.6,10.6,0,0,1-.326,2.285,129.462,129.462,0,0,1-3.971,12.646c-1.29,1.29-3.972.588-5.358-.245-.693-.693,1.03-4.231,1.306-5.086.422-1.313,2.73-6.155.789-7.125a6.381,6.381,0,0,0-1.74.245c-5.809,2.034-9.933,7.947-14.115,12.129-1.813.913-3.114.679-4.9-.218-.177-.177-.091-.457-.055-.68A100.118,100.118,0,0,1,67.1,9.346c.364-1.082,4.1-.681,5.032-.218,0,1.2-.126,3.209,1.6,3.209,3.882-.428,13.394-8.854,15.8-1.632a7.009,7.009,0,0,1,.136,1.2Z" transform="translate(-2.367 -2.424)" fill="#200adf" fill-rule="evenodd"/>
    </g>
  </g>
</svg>
