<svg id="Group_226" data-name="Group 226" xmlns="http://www.w3.org/2000/svg" width="154" height="61" viewBox="0 0 154 61">
  <g id="Rectangle_86" data-name="Rectangle 86" fill="#200adf" stroke="#707070" stroke-width="1" opacity="0">
    <rect width="154" height="61" stroke="none"/>
    <rect x="0.5" y="0.5" width="153" height="60" fill="none"/>
  </g>
  <g id="layer1" transform="translate(32.862 20.223)">
    <g id="g3936" transform="translate(0 0)">
      <path id="path3873" d="M393.818,559.81h5.492v15.543h5.342v5H393.818V559.81" transform="translate(-393.818 -559.168)" fill="#200adf"/>
      <path id="path3875" d="M1071.05,693.358h-4.41v-4.751h4.41Z" transform="translate(-983.842 -672.115)" fill="#200adf"/>
      <path id="path3877" d="M642.657,559.7H630.966v20.593h11.755v-4.7h-6.306v-3.383h6.241v-4.842h-6.263v-3.092h6.263V559.7" transform="translate(-601.782 -559.068)" fill="#200adf"/>
      <path id="path3879" d="M740.767,559.7l-2.184,8.343c-.3,1.254-.589,2.507-.846,3.791-.3-1.341-.621-2.713-.91-4.054L734.9,559.7h-5.717l5.867,20.593h4.839l3.147-11.754c.3,1.225.61,2.45.931,3.645l2.163,8.109h5.021l5.331-20.593h-5.192l-1.831,8.022c-.321,1.4-.621,2.8-.878,4.229-.353-1.458-.7-2.887-1.081-4.317l-2.184-7.934h-4.55" transform="translate(-687.913 -559.068)" fill="#200adf"/>
      <path id="path3881" d="M966.365,559.7h-11.69v20.593H966.43v-4.7h-6.306v-3.383h6.241v-4.842H960.1v-3.092h6.263V559.7" transform="translate(-885.655 -559.068)" fill="#200adf"/>
      <path id="path3883" d="M485.679,563.794s-.021-3.927,3.479-3.963,3.565,3.964,3.565,3.964l.075,1.5-.075,2s-.086,4-3.565,3.936c-3.5-.067-3.479-3.936-3.479-3.936l-.075-2Zm3.576-9.2a8.057,8.057,0,0,1,7.141,4.136,10.951,10.951,0,0,1,1.52,4.442,12.521,12.521,0,0,1,.128,2.234c.022.5-.128,2.544-.128,2.544a9.055,9.055,0,0,1-2.548,5.95,8.877,8.877,0,0,1-6.2,2.627,8.619,8.619,0,0,1-6.113-2.627,9,9,0,0,1-2.548-5.95s-.139-1.3-.161-2.542a10.888,10.888,0,0,1,.118-2.236,9.051,9.051,0,0,1,1.4-4.505c1.381-2.342,3.608-3.989,7.387-4.072" transform="translate(-469.695 -554.591)" fill="#200adf" fill-rule="evenodd"/>
    </g>
  </g>
</svg>
