<svg id="Group_231" data-name="Group 231" xmlns="http://www.w3.org/2000/svg" width="151" height="61" viewBox="0 0 151 61">
  <g id="Rectangle_83" data-name="Rectangle 83" fill="#200adf" stroke="#707070" stroke-width="1" opacity="0">
    <rect width="151" height="61" stroke="none"/>
    <rect x="0.5" y="0.5" width="150" height="60" fill="none"/>
  </g>
  <path id="path35" d="M30.423,2.357a20.807,20.807,0,0,1,0,36.845V36.823a18.585,18.585,0,0,0,6.227-6.141l-6.227-2.53V24.3l6.833,5.341a18.528,18.528,0,0,0,2.227-8.865,18.755,18.755,0,0,0-9.06-16.044V2.357ZM20.8,0a20.693,20.693,0,0,1,9.622,2.357V4.735a18.777,18.777,0,0,0-9.06-2.66l2.378,17.017L30.423,24.3v3.849l-9.665-3.914-9.6,3.935V24.347l6.725-5.254L20.239,2.076a18.721,18.721,0,0,0-9.081,2.66V2.357A20.65,20.65,0,0,1,20.8,0Zm9.622,39.2a20.779,20.779,0,0,1-19.266.022v-2.4a18.645,18.645,0,0,0,19.266,0V39.2Zm-19.266.022a20.806,20.806,0,0,1,0-36.867V4.735A18.731,18.731,0,0,0,4.325,29.688l6.833-5.341v3.827L4.952,30.726a18.594,18.594,0,0,0,6.206,6.1v2.4Z" transform="translate(54.721 9.711)" fill="#200adf" fill-rule="evenodd"/>
</svg>
