<svg xmlns="http://www.w3.org/2000/svg" width="153" height="60" viewBox="0 0 153 60">
  <g id="Group_228" data-name="Group 228" transform="translate(0)">
    <g id="Rectangle_92" data-name="Rectangle 92" transform="translate(0)" fill="#200adf" stroke="#707070" stroke-width="1" opacity="0">
      <rect width="153" height="60" stroke="none"/>
      <rect x="0.5" y="0.5" width="152" height="59" fill="none"/>
    </g>
    <g id="Canadian_Solar_logo" transform="translate(11.696 21.638)">
      <path id="path2476" d="M13.449,4.61l4.408,4.844c.776.853.444,2.658-.057,3.419L13.422,8.111c-.741-.98-.406-2.584.027-3.5" transform="translate(-6.053 -2.149)" fill="#200adf" fill-rule="evenodd"/>
      <path id="path2472" d="M5.091,7.637l6.288,3.375c.879.477,1.189,2.553,1.184,3.472L5.844,10.939c-.853-.538-.9-2.432-.753-3.3M17,0l1.595,6.206c.231.9-1.013,2.049-1.672,2.608L15.355,2.693C15.075,1.623,16.1.528,17,0" transform="translate(-2.344)" fill="#200adf" fill-rule="evenodd"/>
      <path id="path2468" d="M0,16l7.461.085c1.23.015,2.285,1.561,2.8,2.528H2.36C1.3,18.511.331,16.888,0,16M21.71,2.239l-.434,5.584c-.073.933-1.746,1.359-2.422,1.552l.412-5.209c.085-1.072,1.555-1.714,2.444-1.927M12.616,18.468h1.219a4.544,4.544,0,0,1,.559-4.441c1.917-1.98,3.994-1.582,6.388-.426l.964-1.137c-2.565-2.332-6.757-2.633-9.1.1a5.356,5.356,0,0,0-.035,5.9M33.9,7.03A4.075,4.075,0,0,1,37.315,9.21l-1.252.775c-1.585-1.555-3.031-1.811-4.281-.244a5.743,5.743,0,0,0-.093,6.168c1.268,1.694,3.289,1.243,4.47-.371l1.152.974a3.882,3.882,0,0,1-4,2.136c-5.325-.429-5.851-11.472.6-11.619m8.211,2.782a5.472,5.472,0,0,0-2.519.634l.6,1.435c1.049-.656,2.425-.978,3.386.067.183.2.126.428.133.684v.834c-2.185-.707-3.662-.335-4.588,1.118a3.091,3.091,0,0,0,.517,3.386,3.1,3.1,0,0,0,4.087-.234V18.4H45.2V12C45.04,10.4,43.611,9.791,42.114,9.812Zm-.067,4.721a6.33,6.33,0,0,1,1.668.234V16.2c-1.391,1.353-2.837,1.173-3.286.284C39.955,15.286,40.619,14.543,42.047,14.533Zm9.225-4.454a2.528,2.528,0,0,0-2.169.784v-.751H47.552V18.42H49.1V12.481a1.742,1.742,0,0,1,3.2.5V18.42h1.551V12.781A2.7,2.7,0,0,0,51.272,10.079Zm7.741-.267a5.4,5.4,0,0,0-2.5.634l.584,1.435c1.049-.656,2.425-.978,3.387.067.183.2.143.428.15.684v.834c-2.184-.707-3.662-.335-4.588,1.118a3.09,3.09,0,0,0,.517,3.386,3.1,3.1,0,0,0,4.087-.234V18.4H62.1V12C61.939,10.4,60.51,9.791,59.013,9.812Zm-.05,4.721a6.333,6.333,0,0,1,1.668.234V16.2c-1.391,1.353-2.838,1.173-3.286.284C56.871,15.286,57.535,14.543,58.963,14.533ZM79.9,9.812a5.4,5.4,0,0,0-2.5.634l.584,1.435c1.049-.656,2.425-.978,3.387.067.183.2.143.428.15.684v.834c-2.184-.707-3.663-.335-4.588,1.118a3.089,3.089,0,0,0,.517,3.386,3.1,3.1,0,0,0,4.087-.234V18.4h1.451V12C82.825,10.4,81.4,9.791,79.9,9.812Zm-.05,4.721a6.332,6.332,0,0,1,1.668.234V16.2c-1.391,1.353-2.837,1.173-3.286.284C77.757,15.286,78.42,14.543,79.848,14.533Zm39.036-4.721a5.473,5.473,0,0,0-2.519.634l.584,1.435c1.049-.656,2.425-.978,3.387.067.183.2.143.428.15.684v.834c-2.185-.707-3.662-.335-4.588,1.118a3.09,3.09,0,0,0,.517,3.386,3.1,3.1,0,0,0,4.087-.234V18.4h1.468V12C121.81,10.4,120.382,9.791,118.884,9.812Zm-.067,4.721a6.332,6.332,0,0,1,1.668.234V16.2c-1.391,1.353-2.837,1.173-3.286.284C116.726,15.286,117.389,14.543,118.817,14.533ZM89.023,10.079a2.538,2.538,0,0,0-2.152.767v-.734H85.3V18.42h1.568V12.464a1.737,1.737,0,0,1,3.186.517V18.42h1.551V12.781A2.7,2.7,0,0,0,89.023,10.079ZM73.068,18.412h1.553v-8.3H73.068Zm.824-11.4a1.059,1.059,0,1,1-1.059,1.059,1.061,1.061,0,0,1,1.059-1.059m-3.219-.1-1.551.917v3.52A2.266,2.266,0,0,0,66.7,10.112a2.72,2.72,0,0,0-2.586,2.719,17.652,17.652,0,0,0,0,3.153c0,.005,0,.011,0,.017A2.719,2.719,0,0,0,66.7,18.7a2.274,2.274,0,0,0,2.419-1.234V18.62h1.551Zm-3.4,4.771a2.024,2.024,0,0,1,1.852,1.3v2.853c-.729,1.777-3.169,1.889-3.453.167,0-.005,0-.011,0-.017a7.931,7.931,0,0,1,0-2.969A1.54,1.54,0,0,1,67.27,11.68ZM127.492,10.1a1.952,1.952,0,0,0-1.7,1.034V10.112h-1.551V18.42h1.551V12.6a1.892,1.892,0,0,1,2.82-.617l.367-1.5A2.89,2.89,0,0,0,127.492,10.1ZM112.046,7.832l1.553-.917V18.624h-1.553M106.456,9.9c-2,0-3.637,2-3.637,4.454s1.638,4.454,3.637,4.454,3.62-2,3.62-4.454S108.455,9.9,106.456,9.9Zm0,1.735a2.5,2.5,0,0,1,2.2,2.719,2.258,2.258,0,1,1-4.421,0A2.512,2.512,0,0,1,106.456,11.63Zm-10.205-4.2a4.459,4.459,0,0,1,4.67,1.309L99.869,9.962c-1.435-1.324-3.067-1.708-4.057-.377a.432.432,0,0,0-.064.11.522.522,0,0,0-.029.1c-.208,1.15.229,1.888,3.05,2.494a3.254,3.254,0,0,1,2.311,4.4c-.66,1.593-2.117,2.42-4.523,2.092a4.476,4.476,0,0,1-2.941-1.824l1.11-1.136c1.367,1.374,2.955,1.88,4.213,1.158,1.408-1.283.566-2.749-1.638-3.346-1.975-.514-2.975-1.273-3.225-2.354a3.273,3.273,0,0,1,2.175-3.853" transform="translate(0 -1.044)" fill="#200adf" fill-rule="evenodd"/>
    </g>
  </g>
</svg>
