<svg id="Group_233" data-name="Group 233" xmlns="http://www.w3.org/2000/svg" width="153" height="60" viewBox="0 0 153 60">
  <g id="Rectangle_95" data-name="Rectangle 95" fill="#200adf" stroke="#707070" stroke-width="1" opacity="0">
    <rect width="153" height="60" stroke="none"/>
    <rect x="0.5" y="0.5" width="152" height="59" fill="none"/>
  </g>
  <g id="Thyssenkrupp_AG_Logo_2015" transform="translate(47.15 5.422)">
    <path id="polyline3" d="M0,50.488H59.431V0H0" fill="none"/>
    <g id="g5" transform="translate(0 2.52)">
      <path id="path7" d="M83.763,45.871a10.609,10.609,0,0,0-21.216,0,10.61,10.61,0,1,0,10.608,18.21,10.609,10.609,0,1,0,10.608-18.21Zm-6.41,8.751a10.592,10.592,0,0,0-3.359-6.807,9.5,9.5,0,0,1,3.762-1.6,43.407,43.407,0,0,1,2.566,6.136,9.584,9.584,0,0,1-2.969,2.274Zm-4.2,8.086a9.531,9.531,0,0,1-3.165-6.532,10.625,10.625,0,0,0,6.329,0A9.535,9.535,0,0,1,73.155,62.708Zm-7.167-10.36a43.337,43.337,0,0,1,2.566-6.136,9.5,9.5,0,0,1,3.762,1.6,10.589,10.589,0,0,0-3.359,6.807A9.609,9.609,0,0,1,65.988,52.349Zm-.776-1.006a9.495,9.495,0,0,1-1.592-4.755,9.506,9.506,0,0,1,3.168-.542c.219,0,.434.01.649.025a42.108,42.108,0,0,0-2.224,5.273Zm3.89-6.1c1.251-2.084,2.62-3.441,4.053-3.441s2.8,1.357,4.053,3.441a10.573,10.573,0,0,0-4.053,1.871A10.564,10.564,0,0,0,69.1,45.242ZM73.155,55.6a9.506,9.506,0,0,1-3.168-.542,9.531,9.531,0,0,1,3.168-6.57,9.534,9.534,0,0,1,3.168,6.57A9.508,9.508,0,0,1,73.155,55.6Zm5.718-9.527c.214-.014.431-.025.649-.025a9.5,9.5,0,0,1,3.168.542A9.491,9.491,0,0,1,81.1,51.343a42.1,42.1,0,0,0-2.224-5.273Zm-5.718-9.575a9.563,9.563,0,0,1,9.532,8.972,10.557,10.557,0,0,0-4.369-.412c-1.663-2.868-3.389-4.315-5.164-4.315s-3.5,1.447-5.164,4.315a10.557,10.557,0,0,0-4.369.412A9.562,9.562,0,0,1,73.155,36.494ZM57.236,55.6a9.562,9.562,0,0,1,5.353-8.577,10.558,10.558,0,0,0,2.2,5.548l-.058.172a105.52,105.52,0,0,0-2.9,11.023,9.554,9.554,0,0,1-4.6-8.166Zm9.551,9.551a9.493,9.493,0,0,1-3.972-.869A98.145,98.145,0,0,1,65.606,53.5a10.649,10.649,0,0,0,3.308,2.276,10.585,10.585,0,0,0,3.4,7.607A9.5,9.5,0,0,1,66.787,65.149Zm7.206-1.771a10.587,10.587,0,0,0,3.4-7.607A10.652,10.652,0,0,0,80.7,53.495,98.415,98.415,0,0,1,83.5,64.279a9.521,9.521,0,0,1-9.5-.9Zm10.478.386a105.68,105.68,0,0,0-2.9-11.023c-.019-.058-.038-.114-.058-.172a10.551,10.551,0,0,0,2.2-5.548,9.547,9.547,0,0,1,.751,16.743Z" transform="translate(-43.025 -35.433)" fill="#200adf"/>
      <path id="path9" d="M90.859,102.08a1.091,1.091,0,0,1-.387-.28,1.3,1.3,0,0,1-.249-.435,1.706,1.706,0,0,1-.088-.563V99.446a1.6,1.6,0,0,1,.1-.6,1.308,1.308,0,0,1,.274-.432,1.093,1.093,0,0,1,.4-.259,1.313,1.313,0,0,1,.467-.085,1.214,1.214,0,0,1,.477.093.847.847,0,0,1,.363.288,1.507,1.507,0,0,1,.222.5,3.2,3.2,0,0,1,.083.523c.016.2.024.4.024.624,0,.171-.008.361-.024.571a5.017,5.017,0,0,1-.062.518,1.35,1.35,0,0,1-.358.726,1.021,1.021,0,0,1-.747.261,1.224,1.224,0,0,1-.5-.1m-.723,2.682v-2.354a2.121,2.121,0,0,0,.328.331,1.528,1.528,0,0,0,.507.27,2.3,2.3,0,0,0,.712.1,2.215,2.215,0,0,0,.684-.112,1.5,1.5,0,0,0,.619-.392,1.964,1.964,0,0,0,.427-.7,3.531,3.531,0,0,0,.182-.766,7.957,7.957,0,0,0,.059-1.033,8.1,8.1,0,0,0-.075-1.172,2.977,2.977,0,0,0-.262-.884A1.656,1.656,0,0,0,91.7,97.14a1.858,1.858,0,0,0-.963.232,1.838,1.838,0,0,0-.633.616l-.026-.677H89.063v7.451h1.073Zm-4.762-2.682a1.091,1.091,0,0,1-.387-.28,1.291,1.291,0,0,1-.249-.435,1.69,1.69,0,0,1-.088-.563V99.446a1.611,1.611,0,0,1,.1-.6,1.3,1.3,0,0,1,.275-.432,1.091,1.091,0,0,1,.4-.259,1.316,1.316,0,0,1,.467-.085,1.214,1.214,0,0,1,.477.093.85.85,0,0,1,.363.288,1.507,1.507,0,0,1,.222.5,3.2,3.2,0,0,1,.083.523q.024.294.024.624,0,.256-.024.571a5.012,5.012,0,0,1-.062.518,1.35,1.35,0,0,1-.358.726,1.021,1.021,0,0,1-.747.261,1.226,1.226,0,0,1-.5-.1m-.723,2.682v-2.354a2.1,2.1,0,0,0,.328.331,1.533,1.533,0,0,0,.507.27,2.3,2.3,0,0,0,.712.1,2.205,2.205,0,0,0,.683-.112,1.5,1.5,0,0,0,.619-.392,1.954,1.954,0,0,0,.427-.7,3.463,3.463,0,0,0,.182-.766,7.84,7.84,0,0,0,.059-1.033,8.1,8.1,0,0,0-.075-1.172,2.977,2.977,0,0,0-.262-.884,1.657,1.657,0,0,0-1.617-.907,1.771,1.771,0,0,0-1.6.849l-.027-.677H83.578v7.451h1.073Zm-3.892-1.9a2.277,2.277,0,0,0,.7-.643l.011.71h1.014V97.312H81.412v3.314a1.833,1.833,0,0,1-.123.622,1.41,1.41,0,0,1-.435.6,1.071,1.071,0,0,1-.707.261.953.953,0,0,1-.715-.243,1.061,1.061,0,0,1-.235-.761V97.312H78.124V101.4a2.05,2.05,0,0,0,.144.819,1.434,1.434,0,0,0,.376.525,1.377,1.377,0,0,0,.523.28,2.126,2.126,0,0,0,.584.083,1.959,1.959,0,0,0,1.008-.243m-5.115.066v-2.588a4.322,4.322,0,0,1,.09-.816,1.552,1.552,0,0,1,.44-.814,1.272,1.272,0,0,1,.942-.349,1.455,1.455,0,0,1,.294.022V97.3h-.138a1.642,1.642,0,0,0-.982.315,2.136,2.136,0,0,0-.694.881l-.011-1.185H74.572v5.619h1.072Zm-5.182,0v-2.252l.742-.752,1.472,3h1.217l-1.905-3.805,1.783-1.814H72.495l-2.033,2.076V95.326H69.389v7.605Zm-5.607,0V99.617a1.9,1.9,0,0,1,.125-.635,1.388,1.388,0,0,1,.435-.6,1.088,1.088,0,0,1,.715-.256.894.894,0,0,1,.7.246,1.115,1.115,0,0,1,.219.758v3.8h1.073V98.843a2.187,2.187,0,0,0-.178-.9,1.247,1.247,0,0,0-.55-.6,1.783,1.783,0,0,0-.867-.2,2,2,0,0,0-1.014.24,2.252,2.252,0,0,0-.7.64l-.011-.71H63.783v5.619ZM59.4,98.857a1.433,1.433,0,0,1,.248-.512.842.842,0,0,1,.368-.267A1.369,1.369,0,0,1,60.49,98a1.458,1.458,0,0,1,.542.107.837.837,0,0,1,.432.491,2.811,2.811,0,0,1,.163,1.067H59.3a3.2,3.2,0,0,1,.1-.809m2.017,4.128a1.807,1.807,0,0,0,.7-.376,2.252,2.252,0,0,0,.488-.637l-.849-.437a1.991,1.991,0,0,1-.2.272,1.112,1.112,0,0,1-.382.27,1.323,1.323,0,0,1-.563.115,1.818,1.818,0,0,1-.536-.075.975.975,0,0,1-.419-.256,1.2,1.2,0,0,1-.272-.486,2.549,2.549,0,0,1-.1-.758v-.155h3.389v-.587q0-.379-.037-.8a2.892,2.892,0,0,0-.174-.776,1.854,1.854,0,0,0-.4-.638,1.736,1.736,0,0,0-.6-.382,2.488,2.488,0,0,0-.9-.141,2.855,2.855,0,0,0-.976.147,1.764,1.764,0,0,0-.673.43,2.024,2.024,0,0,0-.365.525,2.965,2.965,0,0,0-.248.838,7.14,7.14,0,0,0-.086,1.161,6.8,6.8,0,0,0,.053.894,3.128,3.128,0,0,0,.187.734,1.842,1.842,0,0,0,.734.91,2.448,2.448,0,0,0,1.342.328,3.123,3.123,0,0,0,.889-.123m-5.513.067a2.477,2.477,0,0,0,.486-.147,1.9,1.9,0,0,0,.363-.2,1.112,1.112,0,0,0,.237-.221,1.876,1.876,0,0,0,.267-.451,1.593,1.593,0,0,0,.1-.612,1.761,1.761,0,0,0-.069-.528,1.717,1.717,0,0,0-.161-.368,1.811,1.811,0,0,0-.368-.387,3.047,3.047,0,0,0-.939-.409q-.352-.1-.624-.2a2.745,2.745,0,0,1-.462-.216.941.941,0,0,1-.286-.251.531.531,0,0,1-.1-.312.665.665,0,0,1,.229-.549.766.766,0,0,1,.336-.171,1.963,1.963,0,0,1,.464-.049,1.248,1.248,0,0,1,.667.168,1.11,1.11,0,0,1,.427.521l.86-.416a1.614,1.614,0,0,0-.731-.835,2.535,2.535,0,0,0-1.233-.275,3.093,3.093,0,0,0-.793.1,1.81,1.81,0,0,0-.641.3,1.344,1.344,0,0,0-.392.459,1.453,1.453,0,0,0-.163.432,2.115,2.115,0,0,0-.046.411,1.738,1.738,0,0,0,.064.451,1.207,1.207,0,0,0,.219.435,1.819,1.819,0,0,0,.352.323,2.471,2.471,0,0,0,.576.3l.822.3q.218.085.446.182a.919.919,0,0,1,.361.259.666.666,0,0,1,.134.435.563.563,0,0,1-.086.317.643.643,0,0,1-.229.211,1.073,1.073,0,0,1-.336.114,2.289,2.289,0,0,1-.411.035,1.425,1.425,0,0,1-.426-.059,1.23,1.23,0,0,1-.6-.4,1.794,1.794,0,0,1-.2-.3l-.886.395a1.817,1.817,0,0,0,.742.907,2.566,2.566,0,0,0,.606.264,2.9,2.9,0,0,0,.814.1,2.986,2.986,0,0,0,.6-.055m-4.8,0a2.477,2.477,0,0,0,.486-.147,1.9,1.9,0,0,0,.363-.2,1.111,1.111,0,0,0,.237-.221,1.879,1.879,0,0,0,.267-.451,1.593,1.593,0,0,0,.1-.612,1.761,1.761,0,0,0-.069-.528,1.688,1.688,0,0,0-.16-.368,1.8,1.8,0,0,0-.368-.387,3.054,3.054,0,0,0-.939-.409q-.352-.1-.624-.2a2.745,2.745,0,0,1-.462-.216.942.942,0,0,1-.286-.251.526.526,0,0,1-.1-.312.665.665,0,0,1,.229-.549.769.769,0,0,1,.336-.171,1.966,1.966,0,0,1,.464-.049,1.245,1.245,0,0,1,.667.168,1.114,1.114,0,0,1,.427.521l.859-.416a1.615,1.615,0,0,0-.731-.835,2.535,2.535,0,0,0-1.233-.275,3.094,3.094,0,0,0-.793.1,1.8,1.8,0,0,0-.64.3,1.346,1.346,0,0,0-.392.459,1.467,1.467,0,0,0-.162.432,2.115,2.115,0,0,0-.046.411,1.739,1.739,0,0,0,.064.451,1.206,1.206,0,0,0,.219.435,1.843,1.843,0,0,0,.352.323,2.471,2.471,0,0,0,.576.3l.822.3q.218.085.446.182a.92.92,0,0,1,.361.259.666.666,0,0,1,.134.435.567.567,0,0,1-.086.317.643.643,0,0,1-.229.211,1.077,1.077,0,0,1-.337.114,2.285,2.285,0,0,1-.411.035,1.429,1.429,0,0,1-.427-.059,1.23,1.23,0,0,1-.336-.162,1.263,1.263,0,0,1-.262-.243,1.793,1.793,0,0,1-.2-.3l-.886.395a1.814,1.814,0,0,0,.742.907,2.565,2.565,0,0,0,.606.264,2.9,2.9,0,0,0,.813.1,2.985,2.985,0,0,0,.6-.055m-6.54,1.758a1.275,1.275,0,0,0,.592-.411,3.184,3.184,0,0,0,.534-.966l2.391-6.121H47.014L45.546,101.2l-1.4-3.891H43.054l1.937,5.358-.25.534a1.65,1.65,0,0,1-.312.518.728.728,0,0,1-.574.224,1.394,1.394,0,0,1-.251-.022v.95a2.763,2.763,0,0,0,.379.022,2.13,2.13,0,0,0,.582-.085m-5.333-1.879V99.617a1.882,1.882,0,0,1,.126-.635,1.383,1.383,0,0,1,.435-.6,1.091,1.091,0,0,1,.715-.256.893.893,0,0,1,.7.246,1.111,1.111,0,0,1,.219.758v3.805H42.5V98.843a2.177,2.177,0,0,0-.179-.9,1.249,1.249,0,0,0-.549-.6,1.784,1.784,0,0,0-.867-.2,2.029,2.029,0,0,0-.979.219,2.153,2.153,0,0,0-.691.6V95.326H38.161v7.605Zm-2,0v-.886a4.01,4.01,0,0,1-.406.022,1.1,1.1,0,0,1-.409-.064.55.55,0,0,1-.248-.192.769.769,0,0,1-.123-.32,2.738,2.738,0,0,1-.032-.449V98.155h1.158v-.843H36.016V95.327H34.948v1.985h-.726v.843h.726v2.9a3.976,3.976,0,0,0,.072.787,1.457,1.457,0,0,0,.262.6,1.221,1.221,0,0,0,.52.384,2.245,2.245,0,0,0,.849.137,4.94,4.94,0,0,0,.582-.032Z" transform="translate(-34.222 -59.449)" fill="#200adf"/>
    </g>
  </g>
</svg>
