<svg id="Group_224" data-name="Group 224" xmlns="http://www.w3.org/2000/svg" width="152" height="61" viewBox="0 0 152 61">
  <g id="Rectangle_83" data-name="Rectangle 83" fill="#200adf" stroke="#707070" stroke-width="1" opacity="0">
    <rect width="152" height="61" stroke="none"/>
    <rect x="0.5" y="0.5" width="151" height="60" fill="none"/>
  </g>
  <g id="layer1" transform="translate(36.57 13.629)">
    <path id="circle828" d="M62.161,154.442a17.355,17.355,0,0,0-14.626,8.017l-24.955,0,2.484,2.484H46.237a17.357,17.357,0,0,0-.953,2.894H27.958l2.454,2.454h14.47q-.071.75-.077,1.5.007.7.069,1.39H33.306l2.454,2.454h9.492a17.357,17.357,0,0,0,.915,2.894H38.654l2.484,2.484h6.344a17.312,17.312,0,0,0,29.358,0h6.344l2.484-2.484H78.155a17.356,17.356,0,0,0,.915-2.894h9.492l2.454-2.454H79.448q.063-.693.069-1.39-.006-.754-.077-1.5H93.91l2.454-2.454H79.038a17.357,17.357,0,0,0-.953-2.894H99.258l2.484-2.484H76.789a17.356,17.356,0,0,0-14.628-8.02Zm0,2.353a15,15,0,1,1-15,15,15,15,0,0,1,15-15ZM50.225,167.91v7.777h1.622v-6.122l1.711,6.122h1.681l1.717-6.122v6.122h1.622V167.91H55.959l-1.551,5.305-1.569-5.305Zm10.045,0v7.777h1.746V167.91Zm3.421,0v7.777h1.622v-5.072l3.486,5.072h1.752V167.91H68.93V173.1l-3.539-5.194Zm8.659,0v7.777H74.1V167.91Z" transform="translate(-22.58 -154.442)" fill="#200adf"/>
  </g>
</svg>
