<svg id="Group_225" data-name="Group 225" xmlns="http://www.w3.org/2000/svg" width="153" height="60" viewBox="0 0 153 60">
  <g id="Rectangle_87" data-name="Rectangle 87" fill="#200adf" stroke="#707070" stroke-width="1" opacity="0">
    <rect width="153" height="60" stroke="none"/>
    <rect x="0.5" y="0.5" width="152" height="59" fill="none"/>
  </g>
  <g id="Ebene_x0020_1" transform="translate(17.172 21.075)">
    <path id="Path_37" data-name="Path 37" d="M191.682,9.909V13.4a13.917,13.917,0,0,0-4.829-1.028,3.868,3.868,0,0,0-2,.454,1.309,1.309,0,0,0-.755,1.111c0,.582.564,1.1,1.7,1.564l3.283,1.6c2.654,1.265,3.971,2.946,3.971,5.056a4.932,4.932,0,0,1-2.108,4.19,9.2,9.2,0,0,1-5.628,1.564,26.115,26.115,0,0,1-2.917-.144,22.526,22.526,0,0,1-2.956-.557V23.554a17.36,17.36,0,0,0,5.51,1.028c1.974,0,2.956-.572,2.956-1.727,0-.575-.4-1.039-1.219-1.4L183.044,19.9a7.507,7.507,0,0,1-3-2.219,5.02,5.02,0,0,1-.972-3.046,4.632,4.632,0,0,1,2.026-3.907,9,9,0,0,1,5.391-1.474,20.046,20.046,0,0,1,2.492.183c.935.126,1.835.281,2.7.472Z" transform="translate(-75.799 -9.254)" fill="#200adf" fill-rule="evenodd"/>
    <path id="Path_38" data-name="Path 38" d="M19.289,9.909V13.4a13.9,13.9,0,0,0-4.827-1.028,3.862,3.862,0,0,0-2,.454,1.309,1.309,0,0,0-.755,1.111c0,.582.572,1.1,1.709,1.564L16.7,17.1c2.644,1.265,3.964,2.946,3.964,5.056a4.95,4.95,0,0,1-2.1,4.19,9.228,9.228,0,0,1-5.636,1.564,26.164,26.164,0,0,1-2.92-.144,22.731,22.731,0,0,1-2.953-.557V23.554a17.434,17.434,0,0,0,5.507,1.028c1.974,0,2.956-.572,2.956-1.727,0-.575-.4-1.039-1.209-1.4L10.66,19.9a7.362,7.362,0,0,1-3-2.219,4.956,4.956,0,0,1-.974-3.046,4.616,4.616,0,0,1,2.028-3.907A8.95,8.95,0,0,1,14.1,9.254a20.194,20.194,0,0,1,2.5.183C17.526,9.563,18.425,9.718,19.289,9.909Z" transform="translate(-6.686 -9.254)" fill="#200adf" fill-rule="evenodd"/>
    <path id="Path_39" data-name="Path 39" d="M34,9.8H39.35v18H34Z" transform="translate(-17.638 -9.473)" fill="#200adf" fill-rule="evenodd"/>
    <path id="Path_40" data-name="Path 40" d="M62.925,9.8v3.327H54.98v3.992h6.891v3H54.98v4.19h8.108V27.8H49.833V9.8Z" transform="translate(-23.985 -9.473)" fill="#200adf" fill-rule="evenodd"/>
    <path id="Path_41" data-name="Path 41" d="M98.738,9.8v18H93.746V15.929l-5.18,12.038H85.484L80.5,15.929V27.8H76.892V9.8H83.42l4.456,11.02L92.538,9.8Z" transform="translate(-34.833 -9.473)" fill="#200adf" fill-rule="evenodd"/>
    <path id="Path_42" data-name="Path 42" d="M133.342,9.8v3.327h-7.9v3.992h6.891v3H125.44v4.19H133.5V27.8H120.25V9.8Z" transform="translate(-52.216 -9.473)" fill="#200adf" fill-rule="evenodd"/>
    <path id="Path_43" data-name="Path 43" d="M162.954,9.8v18h-5.672l-6.365-11.546V27.8h-3.608V9.8h5.837l6.2,11.347V9.8Z" transform="translate(-63.064 -9.473)" fill="#200adf" fill-rule="evenodd"/>
  </g>
</svg>
