<svg xmlns="http://www.w3.org/2000/svg" xmlns:xlink="http://www.w3.org/1999/xlink" width="32.627" height="29.656" viewBox="0 0 32.627 29.656">
  <defs>
    <clipPath id="clip-path">
      <rect id="Rectangle_139" data-name="Rectangle 139" width="32.627" height="29.656" fill="#200adf"/>
    </clipPath>
  </defs>
  <g id="Group_195" data-name="Group 195" transform="translate(0 0)">
    <g id="Group_194" data-name="Group 194" transform="translate(0 0)" clip-path="url(#clip-path)">
      <path id="Path_79" data-name="Path 79" d="M29.872,4.415C25.671-.413,18.364-.673,12.585.768,6.614,2.255.689,6.44.046,13.023a9.575,9.575,0,0,0,3.538,8.429,8.231,8.231,0,0,0,3.886,1.64,7.05,7.05,0,0,1,2.344.537c1.731.97.329,2.8-.544,3.818a.719.719,0,0,0-.146.259c-.553-.108-1.182.433-.771,1a2.009,2.009,0,0,0,1.733.947.7.7,0,0,0,.611-.35,11.756,11.756,0,0,1,3.631-4.431c1.662-1.077,3.68-1.284,5.561-1.733a23.078,23.078,0,0,0,9.059-4.259c4.681-3.771,4.79-10.023.925-14.467M27.124,18.477c-3.291,2.239-6.83,2.959-10.589,3.963a9.76,9.76,0,0,0-4.509,2.634,2.474,2.474,0,0,0-1.117-2.445A7.553,7.553,0,0,0,7.651,21.7,6.982,6.982,0,0,1,3.8,19.764c-5.245-5.2-1.045-12.895,4.408-15.839,5.338-2.882,13.132-3.8,18.45-.419a10.079,10.079,0,0,1,4.582,7.134c.4,3.338-1.439,6.015-4.117,7.837" transform="translate(0 0)" fill="#200adf"/>
      <path id="Path_80" data-name="Path 80" d="M9.339,8.212a52.019,52.019,0,0,1,10.354-.866.708.708,0,0,0,0-1.415,53.942,53.942,0,0,0-10.73.916c-.894.166-.515,1.531.376,1.364" transform="translate(1.515 1.061)" fill="#200adf"/>
      <path id="Path_81" data-name="Path 81" d="M19.421,8.57a.669.669,0,0,0-.659.487l-9.367.7c-.9.068-.91,1.483,0,1.415L19.744,10.4a.733.733,0,0,0,.708-.708,1.044,1.044,0,0,0-1.031-1.12" transform="translate(1.562 1.535)" fill="#200adf"/>
      <path id="Path_82" data-name="Path 82" d="M20.756,11.9l-11.443.738c-.9.058-.91,1.474,0,1.415l11.443-.738c.9-.058.91-1.474,0-1.415" transform="translate(1.547 2.132)" fill="#200adf"/>
    </g>
  </g>
</svg>
