<svg id="Group_193" data-name="Group 193" xmlns="http://www.w3.org/2000/svg" xmlns:xlink="http://www.w3.org/1999/xlink" width="27.841" height="30.824" viewBox="0 0 27.841 30.824">
  <defs>
    <clipPath id="clip-path">
      <rect id="Rectangle_138" data-name="Rectangle 138" width="27.841" height="30.824" fill="#200adf"/>
    </clipPath>
  </defs>
  <g id="Group_192" data-name="Group 192" clip-path="url(#clip-path)">
    <path id="Path_77" data-name="Path 77" d="M24.472,6.756a16.14,16.14,0,0,0-3.86-3.6C19.019,2.1,16.993,1.622,15.663.209c-.6-.634-1.548.321-.953.953a6.9,6.9,0,0,0,.919.8c-.131,0-.263,0-.394,0a.686.686,0,0,0-.3,0l-.01.006A15.081,15.081,0,0,0,2.239,9.219c-3.2,5.308-3.118,12.494,1.227,17.143A13.9,13.9,0,0,0,19.1,29.691a15,15,0,0,0,8.741-13.747,15.909,15.909,0,0,0-3.364-9.188m-2.9,19.8a12.211,12.211,0,0,1-6.411,2.805c-.051-.17-.1-.341-.133-.515q-.019-.094-.034-.189c-.006-.038-.048-.166-.006-.034a1.43,1.43,0,0,1-.029-.31,5.232,5.232,0,0,1,0-.623c0-.1.012-.208.024-.311l0-.035a1.816,1.816,0,0,1,.031-.188.605.605,0,0,0-.412-.726.6.6,0,0,0-.726.412,6.18,6.18,0,0,0,.092,2.6,12.584,12.584,0,0,1-7.032-1.958,11.992,11.992,0,0,1-5.574-9.779,1.924,1.924,0,0,0,1.228.117,1.626,1.626,0,0,0,.871-.619,1.273,1.273,0,0,0,.2-1.026.666.666,0,0,0-1.306.244l0,.013,0,0,0-.028c0,.011,0,.021,0,.033l-.035.034a.614.614,0,0,1-.054.03l-.048.015c-.036,0-.073,0-.109,0a1.908,1.908,0,0,1-.325-.091c-.129-.061-.257-.124-.383-.192a13.839,13.839,0,0,1,12.866-12.9c0,.164,0,.329,0,.493a.652.652,0,0,0-.284.487,2.585,2.585,0,0,0,.381,1.645.59.59,0,0,0,1.1-.3q-.015-.934-.017-1.867c0-.163,0-.326,0-.488a13.447,13.447,0,0,1,3.381.491c.026.007.047,0,.073,0a12.263,12.263,0,0,1,2.379,1.509,15.091,15.091,0,0,1,4.543,6.79,13.249,13.249,0,0,1,.631,3.711.846.846,0,0,0-.394-.107l-1.448-.1a.842.842,0,0,0-.6,1.439l.17.133a.846.846,0,0,0,.426.115l1.448.1a.723.723,0,0,0,.352-.084,13.625,13.625,0,0,1-4.828,9.236M2.353,16.467c0,.015,0,.029,0,.045l0-.029,0-.016" transform="translate(0 0.001)" fill="#200adf"/>
    <path id="Path_78" data-name="Path 78" d="M15.261,14.934a9.666,9.666,0,0,1-2.3,1.175,45.158,45.158,0,0,1-.079-5.771c.042-.759-1.139-.756-1.18,0a45.041,45.041,0,0,0,.123,6.563.6.6,0,0,0,.746.57,10.654,10.654,0,0,0,3.286-1.516.606.606,0,0,0,.211-.808.6.6,0,0,0-.807-.211" transform="translate(1.442 1.211)" fill="#200adf"/>
  </g>
</svg>
