<svg id="Group_197" data-name="Group 197" xmlns="http://www.w3.org/2000/svg" xmlns:xlink="http://www.w3.org/1999/xlink" width="29.219" height="35.555" viewBox="0 0 29.219 35.555">
  <defs>
    <clipPath id="clip-path">
      <rect id="Rectangle_140" data-name="Rectangle 140" width="29.219" height="35.555" fill="#200adf"/>
    </clipPath>
  </defs>
  <g id="Group_196" data-name="Group 196" clip-path="url(#clip-path)">
    <path id="Path_83" data-name="Path 83" d="M8.327,35.143A8.385,8.385,0,0,0,8.684,30.2,20.908,20.908,0,0,0,6.335,25.4,127.5,127.5,0,0,1,1.205,13.372c-.093.23-.186.459-.28.689,2.5-1.373,4.637,2.644,5.7,4.312.872,1.361,1.511,3.14,3.242,3.563.549.134,1.089-.609.594-1.02a2.961,2.961,0,0,1-1.3-1.722,3.871,3.871,0,0,1,.654-2.158,21.535,21.535,0,0,0,1.074-3.206c.649-2.529.954-5.127,1.505-7.676a25.258,25.258,0,0,1,1-3.54c.158-.42.192-.808.691-.836.443-.025.414.1.514.5a11.263,11.263,0,0,1,.18,2.22,68.607,68.607,0,0,1-.437,8.813c-.064.686,1.049.829,1.2.163.528-2.336,1.128-4.655,1.819-6.949.322-1.069.643-2.143,1.021-3.194a5.317,5.317,0,0,1,.571-1.311c.69-.965,1.917-1.014,1.944.378.041,2.136-.812,4.354-1.39,6.382a23.974,23.974,0,0,0-1.126,6.335.613.613,0,0,0,1.2.163q1.034-2.743,2.131-5.462.549-1.359,1.116-2.711c.213-.506.4-1.045.655-1.535a3.234,3.234,0,0,1,.474-.779q1.089-.008.825.649A7.846,7.846,0,0,1,23.9,8.182c-.356.9-.737,1.793-1.109,2.688L20.449,16.5c-.229.551.477.88.9.69,1.767-.8,2.853-2.366,3.929-3.911.311-.448.621-.9.961-1.321.192-.241.8-1.157,1.1-1.177l.608.707-.147.409a5.347,5.347,0,0,1-.572,1.244c-.293.586-.613,1.157-.939,1.727A33.186,33.186,0,0,0,23.17,21.5a49.784,49.784,0,0,1-2.624,7.869c-.353.7.7,1.319,1.054.616C23.037,27.138,23.593,24,24.614,21c1.065-3.129,3.2-5.706,4.354-8.783.344-.918.472-2.17-.541-2.735-.933-.52-1.828.257-2.442.9-1.8,1.879-2.768,4.623-5.256,5.752l.9.689c1.12-2.7,2.272-5.382,3.357-8.092.494-1.237,2.187-4.615.112-5.339-1.969-.688-2.8,1.841-3.353,3.167q-1.751,4.167-3.341,8.4l1.2.162c.035-3.142,1.19-6.054,1.93-9.068.4-1.612,1.484-5.09-.7-5.894C18.459-.714,17.442,2.271,16.9,3.919c-1,3.035-1.834,6.118-2.537,9.233l1.2.162c.2-2.118.394-4.237.447-6.364a18.147,18.147,0,0,0-.265-5.138C15.5.934,14.837.094,13.829.315c-1.19.262-1.572,1.8-1.892,2.791-1.111,3.454-1.346,7.108-2.272,10.606a21.105,21.105,0,0,1-.8,2.453A17.542,17.542,0,0,0,7.906,18.4c-.352,1.436.676,2.533,1.7,3.379l.594-1.019c-1.256-.308-1.763-1.811-2.386-2.806a36.5,36.5,0,0,0-2.263-3.221C4.275,13.117,2.316,11.9.309,13.007a.615.615,0,0,0-.281.69c1.44,3.547,2.781,7.157,4.407,10.624.765,1.631,1.785,3.124,2.551,4.748a7.193,7.193,0,0,1,.164,5.751c-.28.734.9,1.053,1.177.324" transform="translate(0 0)" fill="#200adf"/>
  </g>
</svg>
