<svg id="Group_191" data-name="Group 191" xmlns="http://www.w3.org/2000/svg" xmlns:xlink="http://www.w3.org/1999/xlink" width="27.802" height="33.316" viewBox="0 0 27.802 33.316">
  <defs>
    <clipPath id="clip-path">
      <rect id="Rectangle_137" data-name="Rectangle 137" width="27.802" height="33.316" fill="#200adf"/>
    </clipPath>
  </defs>
  <g id="Group_190" data-name="Group 190" clip-path="url(#clip-path)">
    <path id="Path_76" data-name="Path 76" d="M16.61,13.943a7.95,7.95,0,0,0,1.321-.729,7.556,7.556,0,0,0,2.936-8.339A6.984,6.984,0,0,0,12.751.16a.659.659,0,0,0-.477.36A6.009,6.009,0,0,0,7.194,4.395a9.525,9.525,0,0,0-.222,5,6.091,6.091,0,0,0,2.464,4.129,6.269,6.269,0,0,0,.933.525C4.491,15.9.663,22.6.005,28.66c-.105.971,1.416.963,1.521,0,.75-6.915,6.323-15.185,14.267-13.366,7.812,1.789,10.636,10.131,10.481,17.288a.761.761,0,0,0,1.521,0c.166-7.668-3.112-16.6-11.186-18.639M8.33,6.118a4.628,4.628,0,0,1,2.032-3.4,4.5,4.5,0,0,1,3.66-.529.713.713,0,0,0,.919-.629,5.48,5.48,0,0,1,4.174,2.984A5.973,5.973,0,0,1,17.9,11.277a6.4,6.4,0,0,1-6.722,1.465C8.616,11.7,7.991,8.621,8.33,6.118" transform="translate(0 0)" fill="#200adf"/>
  </g>
</svg>
