<svg xmlns="http://www.w3.org/2000/svg" width="664" height="147.053" viewBox="0 0 664 147.053">
  <path id="Pfad_56" data-name="Pfad 56" d="M25.882,120.63V-23.137H3.29V120.63ZM87.291-1.777V120.63h22.592V-1.777h40.255v-21.36H47.036v21.36Zm87.287,70.651c0,16.636,4.724,29.78,14.377,39.228s22.181,14.171,37.379,14.171,27.521-4.724,37.174-13.966c9.653-9.448,14.582-22.592,14.582-39.433V-23.137H255.5V69.9c0,19.717-10.064,31.013-29.164,31.013S197.17,89.618,197.17,69.9V-23.137H174.578ZM434.386,48.747q0-35.12-19.1-54.221C402.757-18.413,387.148-24.78,368.459-24.78s-34.3,6.367-47.032,19.306c-12.528,12.734-18.9,30.807-18.9,54.221s6.367,41.487,18.9,54.426c12.734,12.734,28.343,19.1,47.032,19.1,15.609,0,29.164-4.518,40.46-13.35l13.555,13.35,15.2-15.2L423.3,92.9C430.689,80.786,434.386,66,434.386,48.747ZM393.1,93.109c-6.778,5.135-14.993,7.8-24.646,7.8a40.418,40.418,0,0,1-30.807-13.35c-8.01-8.831-12.117-21.77-12.117-38.817s4.108-29.986,12.117-38.817A40.418,40.418,0,0,1,368.459-3.42c12.323,0,22.592,4.518,30.6,13.35q12.323,13.247,12.323,38.817c0,10.474-1.643,19.717-5.135,27.316l-15.4-15.609-15.2,15.2Zm49.7,27.521h23l11.912-35.736h51.345l11.912,35.736h23L514.074-23.137h-21.36Zm79.483-57.1H484.5l18.9-58.123ZM660.306-.545C651.269-16.77,638.125-24.78,620.667-24.78a36.57,36.57,0,0,0-26.7,10.885c-7.188,7.188-10.885,16.02-10.885,26.9,0,44.362,61.2,38.2,61.2,66.338,0,12.528-9.037,21.565-21.976,21.565-14.171,0-23.824-10.064-28.959-30.4L574.867,82.224c5.135,23.824,22.8,40.049,47.443,40.049,13.144,0,23.824-4.108,32.245-12.118s12.734-18.69,12.734-31.629c.205-25.878-22.592-36.147-39.844-43.746-12.118-5.751-21.77-12.939-21.77-23.414,0-8.831,5.956-15.609,14.993-15.609,8.626,0,15.815,5.34,21.36,15.814Z" transform="translate(-3.29 24.78)" fill="#d3ff1a"/>
</svg>
